<?xml version="1.0" encoding="utf-8"?>
<svg xmlns="http://www.w3.org/2000/svg" viewBox="0 0 500 500">
  <path d="M 84.63 209.55 C 84.63 118.219 158.669 44.18 250 44.18 C 340.776 44.18 414.468 117.32 415.362 207.885 L 84.635 210.771 C 84.632 210.365 84.631 209.958 84.631 209.551 L 84.63 209.55 Z" style="stroke-opacity: 1; paint-order: fill; fill: none; stroke: rgb(255, 255, 255); stroke-width: 19px;"/>
  <path d="M 116.55 209.55 C 116.55 135.848 176.298 76.1 250 76.1 C 323.24 76.1 382.699 135.1 383.443 208.163 L 116.553 210.492 C 116.551 210.178 116.55 209.864 116.55 209.55 Z" style="stroke-opacity: 1; paint-order: fill; fill: none; stroke: rgb(255, 255, 255); stroke-width: 19px;"/>
  <path d="M 148.47 209.55 C 148.47 153.477 193.927 108.02 250 108.02 C 305.704 108.02 350.93 152.879 351.524 208.442 L 148.472 210.214 C 148.471 209.993 148.47 209.772 148.47 209.551 L 148.47 209.55 Z" style="stroke-opacity: 1; paint-order: fill; fill: none; stroke: rgb(255, 255, 255); stroke-width: 19px;"/>
  <path d="M 182.087 209.55 C 182.087 172.043 212.493 141.637 250 141.637 C 287.235 141.637 317.472 171.603 317.908 208.735 L 182.088 209.92 C 182.087 209.797 182.087 209.673 182.087 209.55 Z" style="stroke-opacity: 1; paint-order: fill; fill: none; stroke: rgb(255, 255, 255); stroke-width: 19px;"/>
  <g id="Layer_x0020_1" transform="matrix(0.928057, 0, 0, 1.119934, 12.417404, 239.358292)" style="">
    <path d="M 473.87 -3.43 L 492.93 -3.43 C 503.42 -3.43 512 5.15 512 15.64 L 512 76.64 C 512 87.13 503.42 95.71 492.93 95.71 L 473.87 95.71 C 479.83 54.07 480.03 20.72 473.87 -3.43 Z M 38.13 -3.43 L 19.06 -3.43 C 8.57 -3.43 0 5.15 0 15.64 L 0 76.64 C 0 87.13 8.57 95.71 19.06 95.71 L 38.13 95.71 C 32.17 54.07 31.97 20.72 38.13 -3.43 Z M 46.02 96.59 L 46.02 1.04 C 49.04 -23.46 62.71 -36.14 82.77 -41.73 L 212.49 -41.73 L 212.49 -100.1 C 212.49 -107.32 218.39 -113.22 225.61 -113.22 L 282.4 -113.22 C 291.81 -113.22 299.5 -105.5 299.5 -96.12 L 299.5 -41.73 L 422.22 -41.73 C 448.58 -39.53 465.91 -28.09 465.97 1.04 L 465.97 91.91 C 466.29 124.45 449.19 135.79 420.22 132.67 L 351.39 132.67 C 306.72 132.67 300.38 106.63 281.11 94.27 C 268.33 86.07 249.38 85.8 236.08 92.92 C 214.81 104.3 208.71 131.29 159.62 134.01 L 83.44 134.01 C 63.11 132.17 49.46 121.29 46.02 96.59 Z M 233.48 -41.73 L 278.51 -41.73 L 278.51 -69.34 C 278.51 -73.13 275.41 -76.24 271.61 -76.24 L 238.77 -76.24 C 235.86 -76.24 233.48 -73.86 233.48 -70.95 L 233.48 -41.73 Z" style="fill: rgb(109, 109, 109);"/>
  </g>
  <text style="fill: rgb(255, 255, 255); font-family: Consolas; font-size: 150px; font-weight: 700; white-space: pre;" x="167.529" y="314.078">&lt;&gt;</text>
</svg>